HIERARCHY
ROOT Hips
{
	OFFSET 53.737000 3.300651 55.730499
	CHANNELS 6 Xposition Yposition Zposition Xrotation Yrotation Zrotation
	JOINT spine
	{
		OFFSET 0.000000 -0.458068 7.965679
		CHANNELS 3 Xrotation Yrotation Zrotation
		JOINT spine1
		{
			OFFSET 0.000000 -0.000002 10.243099
			CHANNELS 3 Xrotation Yrotation Zrotation
			JOINT spine2
			{
				OFFSET 0.000000 -0.000001 9.814751
				CHANNELS 3 Xrotation Yrotation Zrotation
				JOINT Neck
				{
					OFFSET 0.000000 -1.201384 25.198601
					CHANNELS 3 Xrotation Yrotation Zrotation
					JOINT Head
					{
						OFFSET 0.000000 -0.000001 7.613152
						CHANNELS 3 Xrotation Yrotation Zrotation
						End Site
						{
							OFFSET 0.000000 6.077327 18.428101
						}
					}
				}
				JOINT RightShoulder
				{
					OFFSET -4.132698 0.575449 10.599197
					CHANNELS 3 Xrotation Yrotation Zrotation
					JOINT RightArm
					{
						OFFSET 0.000000 -0.000002 13.901802
						CHANNELS 3 Xrotation Yrotation Zrotation
						JOINT RightArmRoll
						{
							OFFSET 0.000000 -0.000001 7.017891
							CHANNELS 3 Xrotation Yrotation Zrotation
							JOINT RightForeArm
							{
								OFFSET 0.000000 -0.000003 20.440598
								CHANNELS 3 Xrotation Yrotation Zrotation
								JOINT RightForeArmRoll
								{
									OFFSET 0.000000 -0.000001 7.875168
									CHANNELS 3 Xrotation Yrotation Zrotation
									JOINT RightHand
									{
										OFFSET 0.000000 -0.000003 15.803696
										CHANNELS 3 Xrotation Yrotation Zrotation
										End Site
										{
											OFFSET 0.000000 0.000000 0.100006
										}
									}
								}
							}
						}
					}
				}
				JOINT LeftShoulder
				{
					OFFSET 4.132698 0.575449 10.599197
					CHANNELS 3 Xrotation Yrotation Zrotation
					JOINT LeftArm
					{
						OFFSET 0.000000 -0.000002 13.901802
						CHANNELS 3 Xrotation Yrotation Zrotation
						JOINT LeftArmRoll
						{
							OFFSET 0.000000 -0.000001 7.017883
							CHANNELS 3 Xrotation Yrotation Zrotation
							JOINT LeftForeArm
							{
								OFFSET 0.000000 -0.000003 20.440605
								CHANNELS 3 Xrotation Yrotation Zrotation
								JOINT LeftForeArmRoll
								{
									OFFSET 0.000000 -0.000001 7.875168
									CHANNELS 3 Xrotation Yrotation Zrotation
									JOINT LeftHand
									{
										OFFSET 0.000000 -0.000003 15.803696
										CHANNELS 3 Xrotation Yrotation Zrotation
										End Site
										{
											OFFSET 0.000000 0.000000 0.100006
										}
									}
								}
							}
						}
					}
				}
			}
		}
	}
	JOINT RightUpLeg
	{
		OFFSET -7.060478 1.086100 -1.294701
		CHANNELS 3 Xrotation Yrotation Zrotation
		JOINT RightUpLegRoll
		{
			OFFSET 0.000000 -0.000003 18.530800
			CHANNELS 3 Xrotation Yrotation Zrotation
			JOINT RightLeg
			{
				OFFSET 0.000000 0.000004 -22.947601
				CHANNELS 3 Xrotation Yrotation Zrotation
				JOINT RightLegRoll
				{
					OFFSET 0.000000 -0.000004 23.022598
					CHANNELS 3 Xrotation Yrotation Zrotation
					JOINT RightFoot
					{
						OFFSET 0.000000 -0.000003 19.162498
						CHANNELS 3 Xrotation Yrotation Zrotation
						JOINT RightToeBase
						{
							OFFSET 0.000000 -0.000002 16.018799
							CHANNELS 3 Xrotation Yrotation Zrotation
							End Site
							{
								OFFSET 0.006790 0.894205 7.757820
							}
						}
					}
				}
			}
		}
	}
	JOINT LeftUpLeg
	{
		OFFSET 7.060478 1.086100 -1.294701
		CHANNELS 3 Xrotation Yrotation Zrotation
		JOINT LeftUpLegRoll
		{
			OFFSET 0.000000 -0.000003 18.530899
			CHANNELS 3 Xrotation Yrotation Zrotation
			JOINT LeftLeg
			{
				OFFSET 0.000000 -0.000004 22.947502
				CHANNELS 3 Xrotation Yrotation Zrotation
				JOINT LeftLegRoll
				{
					OFFSET 0.000000 -0.000004 23.235504
					CHANNELS 3 Xrotation Yrotation Zrotation
					JOINT LeftFoot
					{
						OFFSET 0.000000 -0.000003 18.949600
						CHANNELS 3 Xrotation Yrotation Zrotation
						JOINT LeftToeBase
						{
							OFFSET 0.000000 -0.000003 16.018799
							CHANNELS 3 Xrotation Yrotation Zrotation
							End Site
							{
								OFFSET -0.030430 0.894205 7.757812
							}
						}
					}
				}
			}
		}
	}
}
MOTION
Frames: 11
Frame Time: 0.041667
53.611103 2.933981 55.124901 -10.275114 -3.251108 1.572419 3.742019 -0.050146 -0.602298 11.486238 -0.146102 -1.198182 13.131151 -0.160443 -1.196352 -4.203288 8.860674 -1.518781 28.053991 -13.804447 1.603960 -6.928971 -56.596956 -7.990975 -56.935552 -133.599798 -73.537443 0.000001 0.000000 0.000001 61.123499 -8.485919 1.607407 -0.000012 0.000030 -2.999999 -5.000177 -7.998731 0.000135 -11.153040 62.417916 13.345884 -57.931602 126.637103 89.740530 0.000002 0.000011 -0.000003 78.189280 7.805324 0.034276 -0.000006 0.000002 3.000001 -5.000161 7.998826 -0.000152 -79.885298 -168.062651 3.591235 -179.999991 0.000005 -1.686998 85.427580 3.941156 1.261807 -0.000000 -0.000002 2.137970 67.461307 8.018115 -0.573775 27.969065 -7.353780 0.291969 -78.975387 170.162566 -4.102786 -0.000020 -0.000004 -1.682160 -101.571463 -4.865789 -2.268322 -0.000005 0.000003 -2.950339 69.204371 -7.024874 -1.765094 28.096127 7.187937 -3.840664 
53.598404 2.935163 55.128906 -10.354802 -3.197947 1.536227 3.746540 -0.054188 -0.599173 11.495243 -0.154377 -1.191615 13.140159 -0.168639 -1.189692 -4.317419 8.762842 -1.553263 28.077518 -13.740668 1.558264 -7.016259 -56.661952 -8.100576 -57.068211 -133.652964 -73.707126 -0.000000 -0.000001 -0.000000 60.999723 -8.531017 1.631596 -0.000012 0.000028 -3.000002 -5.000176 -7.998733 0.000136 -11.071705 62.392323 13.250262 -57.953035 126.759951 89.737115 0.000001 0.000011 -0.000001 78.009571 7.873119 -0.031777 -0.000006 0.000001 3.000001 -5.000159 7.998825 -0.000152 -79.794252 -168.102908 3.640095 -179.999991 0.000005 -1.689005 85.447292 3.930444 1.250401 -0.000000 -0.000001 2.138080 67.448466 8.019490 -0.575464 27.956958 -7.354093 0.279875 -78.918997 170.106708 -4.067947 -0.000020 -0.000005 -1.681420 -101.572167 -4.879487 -2.282734 -0.000005 0.000004 -2.951030 69.199652 -7.026308 -1.762356 28.092611 7.188296 -3.835501 
53.591103 2.945651 55.118999 -10.433788 -3.145129 1.500043 3.751051 -0.058300 -0.596009 11.504247 -0.162830 -1.184969 13.149163 -0.177012 -1.182938 -4.429740 8.667864 -1.588626 28.097032 -13.676150 1.510509 -7.103760 -56.725896 -8.210264 -57.197025 -133.708521 -73.870955 0.000001 -0.000000 0.000001 60.877456 -8.574724 1.654255 -0.000011 0.000029 -3.000002 -5.000177 -7.998733 0.000135 -10.988163 62.367789 13.152130 -57.976831 126.880299 89.737983 0.000000 0.000010 -0.000001 77.830661 7.941221 -0.097437 -0.000006 -0.000001 3.000001 -5.000161 7.998824 -0.000153 -79.704585 -168.143124 3.687747 -179.999991 0.000006 -1.691000 85.466669 3.919782 1.239009 -0.000001 -0.000001 2.138151 67.435680 8.020452 -0.576138 27.943938 -7.354408 0.266758 -78.863727 170.051097 -4.032033 -0.000020 -0.000004 -1.680680 -101.573034 -4.893023 -2.296151 -0.000004 0.000003 -2.951739 69.195130 -7.027747 -1.759509 28.089100 7.188634 -3.830336 
53.592804 2.956681 55.111500 -10.511881 -3.092675 1.463871 3.755572 -0.062454 -0.592831 11.513152 -0.171385 -1.178290 13.158171 -0.185486 -1.176158 -4.540773 8.575851 -1.624576 28.113429 -13.611419 1.461270 -7.191342 -56.788874 -8.319895 -57.323544 -133.765211 -74.031444 0.000001 0.000000 -0.000000 60.756643 -8.617300 1.675820 -0.000012 0.000028 -3.000002 -5.000176 -7.998730 0.000134 -10.902974 62.343925 13.052091 -58.002035 126.998830 89.741651 0.000001 0.000012 -0.000001 77.652291 8.009642 -0.162673 -0.000006 -0.000001 3.000001 -5.000162 7.998828 -0.000153 -79.615806 -168.183614 3.736029 -179.999991 0.000006 -1.691998 85.485637 3.909263 1.227849 -0.000001 -0.000002 2.138170 67.422969 8.021005 -0.575802 27.929916 -7.354758 0.252620 -78.809018 169.995909 -3.996982 -0.000020 -0.000004 -1.679940 -101.573983 -4.906376 -2.310554 -0.000004 0.000004 -2.952470 69.190629 -7.029193 -1.756660 28.085692 7.188949 -3.825199 
53.584904 2.972491 55.120998 -10.589276 -3.040583 1.427695 3.760110 -0.066612 -0.589661 11.522257 -0.179964 -1.171623 13.167177 -0.193985 -1.169388 -4.651037 8.486872 -1.660817 28.127634 -13.547157 1.411188 -7.278871 -56.851001 -8.429311 -57.446037 -133.824101 -74.186448 0.000000 -0.000000 0.000001 60.637443 -8.658906 1.696373 -0.000012 0.000031 -3.000001 -5.000179 -7.998726 0.000135 -10.816610 62.320442 12.950700 -58.028331 127.115312 89.747880 0.000000 0.000012 -0.000001 77.474494 8.078235 -0.227617 -0.000006 0.000002 3.000002 -5.000159 7.998825 -0.000152 -79.528414 -168.224021 3.782198 -179.999991 0.000005 -1.694005 85.504454 3.898718 1.216591 0.000000 -0.000002 2.138141 67.410320 8.021063 -0.574368 27.915084 -7.355137 0.237508 -78.755121 169.941035 -3.961403 -0.000020 -0.000003 -1.679200 -101.574987 -4.919511 -2.324937 -0.000005 0.000004 -2.953222 69.186121 -7.030628 -1.753912 28.082174 7.189262 -3.820090 
53.577503 2.983502 55.106697 -10.666080 -2.988860 1.391505 3.764694 -0.070744 -0.586522 11.531363 -0.188493 -1.165023 13.176383 -0.202434 -1.162688 -4.761041 8.401029 -1.697055 28.140629 -13.483777 1.360800 -7.366181 -56.912483 -8.538350 -57.565982 -133.883852 -74.338502 -0.000001 0.000001 0.000001 60.519998 -8.699710 1.716077 -0.000012 0.000027 -3.000002 -5.000174 -7.998733 0.000133 -10.729600 62.296940 12.848538 -58.054586 127.230278 89.755133 0.000000 0.000012 0.000000 77.296957 8.147111 -0.292323 -0.000007 -0.000002 3.000001 -5.000160 7.998825 -0.000150 -79.441630 -168.264770 3.829215 -179.999991 0.000005 -1.695002 85.523012 3.888328 1.205352 0.000000 -0.000001 2.138029 67.397534 8.020732 -0.571802 27.899547 -7.355524 0.221444 -78.701702 169.886503 -3.925982 -0.000020 -0.000005 -1.678470 -101.575985 -4.932667 -2.338296 -0.000004 0.000003 -2.953970 69.181518 -7.032100 -1.751174 28.078863 7.189551 -3.815070 
53.568005 2.994053 55.104195 -10.742284 -2.937528 1.355305 3.769324 -0.074815 -0.583434 11.540570 -0.196893 -1.158527 13.185592 -0.210756 -1.156084 -4.871292 8.318422 -1.733011 28.153125 -13.421918 1.310665 -7.453160 -56.973337 -8.646864 -57.683372 -133.944477 -74.487700 0.000002 0.000000 -0.000001 60.404472 -8.739878 1.735112 -0.000011 0.000028 -3.000001 -5.000178 -7.998730 0.000135 -10.642505 62.273198 12.746241 -58.081900 127.343208 89.764825 0.000000 0.000010 0.000004 77.119618 8.216152 -0.356602 -0.000007 0.000004 3.000002 -5.000158 7.998824 -0.000153 -79.355959 -168.305519 3.874459 -179.999991 0.000005 -1.696996 85.541494 3.877999 1.194218 -0.000000 -0.000001 2.137841 67.384597 8.019936 -0.568219 27.883312 -7.355950 0.204455 -78.648583 169.832531 -3.891531 -0.000020 -0.000004 -1.677740 -101.576873 -4.945801 -2.350682 -0.000004 0.000003 -2.954739 69.176907 -7.033536 -1.748532 28.075443 7.189840 -3.810116 
53.550003 3.006753 55.122597 -10.817993 -2.886584 1.319065 3.774002 -0.078791 -0.580423 11.549875 -0.205089 -1.152188 13.194900 -0.218876 -1.149654 -4.982313 8.239123 -1.768382 28.166211 -13.362062 1.261359 -7.539616 -57.033674 -8.754667 -57.797074 -134.006262 -74.633129 0.000000 0.000000 -0.000002 60.290988 -8.779533 1.753762 -0.000012 0.000027 -3.000001 -5.000180 -7.998735 0.000135 -10.555793 62.248787 12.644333 -58.107732 127.454909 89.773718 0.000001 0.000010 -0.000003 76.942211 8.285330 -0.420437 -0.000007 -0.000000 3.000000 -5.000160 7.998822 -0.000153 -79.270902 -168.346555 3.919554 -179.999991 0.000005 -1.697994 85.559860 3.867826 1.183101 -0.000001 -0.000002 2.137550 67.371408 8.018746 -0.563497 27.866361 -7.356403 0.186538 -78.595977 169.778586 -3.855682 -0.000020 -0.000004 -1.677020 -101.577822 -4.958720 -2.365035 -0.000005 0.000004 -2.955512 69.172276 -7.034933 -1.745884 28.072224 7.190116 -3.805289 
53.544502 3.018802 55.119198 -10.893309 -2.836047 1.282786 3.778763 -0.082640 -0.577509 11.559381 -0.213004 -1.146054 13.204403 -0.226717 -1.143426 -5.094599 8.163231 -1.802883 28.180684 -13.304746 1.213416 -7.625455 -57.093702 -8.861646 -57.909636 -134.067488 -74.778489 0.000002 0.000000 -0.000001 60.179711 -8.818892 1.772184 -0.000012 0.000027 -3.000001 -5.000178 -7.998730 0.000134 -10.470011 62.223433 12.543446 -58.133413 127.565025 89.783376 0.000001 0.000012 -0.000003 76.764612 8.354675 -0.483922 -0.000006 0.000000 3.000001 -5.000159 7.998823 -0.000152 -79.186392 -168.387795 3.964316 -179.999991 0.000006 -1.699004 85.578118 3.857854 1.172097 -0.000000 -0.000002 2.137150 67.357864 8.017112 -0.557538 27.848913 -7.356891 0.167739 -78.543344 169.725283 -3.821336 -0.000020 -0.000005 -1.676300 -101.578765 -4.971416 -2.378363 -0.000005 0.000004 -2.956282 69.167461 -7.036398 -1.743160 28.069012 7.190381 -3.800583 
53.547604 3.027452 55.111401 -10.968225 -2.785916 1.246465 3.783603 -0.086330 -0.574715 11.569085 -0.220562 -1.140169 13.214013 -0.234203 -1.137458 -5.208676 8.090847 -1.836248 28.197449 -13.250663 1.167469 -7.710512 -57.153414 -8.967606 -58.019090 -134.129110 -74.921383 -0.000000 0.000000 0.000001 60.070674 -8.858062 1.790254 -0.000011 0.000030 -3.000001 -5.000177 -7.998732 0.000133 -10.385728 62.196823 12.444187 -58.157510 127.673830 89.792078 0.000000 0.000012 0.000000 76.586665 8.424110 -0.546936 -0.000006 -0.000000 3.000002 -5.000159 7.998823 -0.000152 -79.102709 -168.429132 4.007322 -179.999991 0.000005 -1.700002 85.596477 3.847982 1.161201 -0.000000 -0.000001 2.136620 67.343978 8.015076 -0.550637 27.830956 -7.357421 0.148086 -78.490963 169.672144 -3.786084 -0.000020 -0.000005 -1.675580 -101.579516 -4.984279 -2.391694 -0.000005 0.000003 -2.957049 69.162414 -7.037811 -1.740440 28.066004 7.190637 -3.796046 
53.538105 3.037350 55.110203 -11.042748 -2.736204 1.210096 3.788542 -0.089825 -0.572064 11.578890 -0.227685 -1.134591 13.223920 -0.241261 -1.131787 -5.325057 8.022045 -1.868181 28.217373 -13.200244 1.123988 -7.794623 -57.212950 -9.072387 -58.126371 -134.190555 -75.063567 -0.000002 0.000000 -0.000000 59.964150 -8.897249 1.808541 -0.000011 0.000028 -3.000000 -5.000176 -7.998730 0.000135 -10.303410 62.168505 12.347091 -58.180180 127.781433 89.799796 0.000001 0.000012 -0.000001 76.408247 8.493624 -0.609686 -0.000005 0.000001 3.000002 -5.000160 7.998829 -0.000152 -79.019305 -168.470755 4.049998 -179.999991 0.000005 -1.701000 85.614960 3.838229 1.150305 -0.000001 -0.000001 2.135960 67.329724 8.012594 -0.542597 27.812607 -7.357984 0.127588 -78.438398 169.619497 -3.751854 -0.000020 -0.000004 -1.674860 -101.580233 -4.996897 -2.405015 -0.000005 0.000003 -2.957822 69.157161 -7.039253 -1.737742 28.063087 7.190878 -3.791679 
